<?xml version="1.0" encoding="UTF-8" standalone="no"?>
<svg
   xmlns:dc="http://purl.org/dc/elements/1.1/"
   xmlns:cc="http://creativecommons.org/ns#"
   xmlns:rdf="http://www.w3.org/1999/02/22-rdf-syntax-ns#"
   xmlns:svg="http://www.w3.org/2000/svg"
   xmlns="http://www.w3.org/2000/svg"
   xmlns:sodipodi="http://sodipodi.sourceforge.net/DTD/sodipodi-0.dtd"
   xmlns:inkscape="http://www.inkscape.org/namespaces/inkscape"
   version="1.1"
   id="svg6629"
   sodipodi:docname="qr_white.svg"
   width="29"
   height="29"
   inkscape:version="0.92.2 (5c3e80d, 2017-08-06)">
  <metadata
     id="metadata6635">
    <rdf:RDF>
      <cc:Work
         rdf:about="">
        <dc:format>image/svg+xml</dc:format>
        <dc:type
           rdf:resource="http://purl.org/dc/dcmitype/StillImage" />
        <dc:title></dc:title>
      </cc:Work>
    </rdf:RDF>
  </metadata>
  <defs
     id="defs6633" />
  <sodipodi:namedview
     pagecolor="#ffffff"
     bordercolor="#666666"
     borderopacity="1"
     objecttolerance="10"
     gridtolerance="10"
     guidetolerance="10"
     inkscape:pageopacity="0"
     inkscape:pageshadow="2"
     inkscape:window-width="1366"
     inkscape:window-height="705"
     id="namedview6631"
     showgrid="false"
     inkscape:zoom="6.675088"
     inkscape:cx="5.459235"
     inkscape:cy="6.3949338"
     inkscape:window-x="1912"
     inkscape:window-y="-8"
     inkscape:window-maximized="1"
     inkscape:current-layer="svg6629" />
  <rect
     x="0"
     y="0"
     width="29"
     height="29"
     style="fill:#ffffff;fill-opacity:0"
     id="rect6163" />
  <rect
     x="4"
     y="3.9999981"
     width="1"
     height="1"
     style="fill:#ffffff;fill-opacity:1"
     id="rect6165" />
  <rect
     x="5"
     y="3.9999981"
     width="1"
     height="1"
     style="fill:#ffffff;fill-opacity:1"
     id="rect6167" />
  <rect
     x="6"
     y="3.9999981"
     width="1"
     height="1"
     style="fill:#ffffff;fill-opacity:1"
     id="rect6169" />
  <rect
     x="7"
     y="3.9999981"
     width="1"
     height="1"
     style="fill:#ffffff;fill-opacity:1"
     id="rect6171" />
  <rect
     x="8"
     y="3.9999981"
     width="1"
     height="1"
     style="fill:#ffffff;fill-opacity:1"
     id="rect6173" />
  <rect
     x="9"
     y="3.9999981"
     width="1"
     height="1"
     style="fill:#ffffff;fill-opacity:1"
     id="rect6175" />
  <rect
     x="10"
     y="3.9999981"
     width="1"
     height="1"
     style="fill:#ffffff;fill-opacity:1"
     id="rect6177" />
  <rect
     x="13"
     y="3.9999981"
     width="1"
     height="1"
     style="fill:#ffffff;fill-opacity:1"
     id="rect6179" />
  <rect
     x="16"
     y="3.9999981"
     width="1"
     height="1"
     style="fill:#ffffff;fill-opacity:1"
     id="rect6181" />
  <rect
     x="18"
     y="3.9999981"
     width="1"
     height="1"
     style="fill:#ffffff;fill-opacity:1"
     id="rect6183" />
  <rect
     x="19"
     y="3.9999981"
     width="1"
     height="1"
     style="fill:#ffffff;fill-opacity:1"
     id="rect6185" />
  <rect
     x="20"
     y="3.9999981"
     width="1"
     height="1"
     style="fill:#ffffff;fill-opacity:1"
     id="rect6187" />
  <rect
     x="21"
     y="3.9999981"
     width="1"
     height="1"
     style="fill:#ffffff;fill-opacity:1"
     id="rect6189" />
  <rect
     x="22"
     y="3.9999981"
     width="1"
     height="1"
     style="fill:#ffffff;fill-opacity:1"
     id="rect6191" />
  <rect
     x="23"
     y="3.9999981"
     width="1"
     height="1"
     style="fill:#ffffff;fill-opacity:1"
     id="rect6193" />
  <rect
     x="24"
     y="3.9999981"
     width="1"
     height="1"
     style="fill:#ffffff;fill-opacity:1"
     id="rect6195" />
  <rect
     x="4"
     y="4.9999981"
     width="1"
     height="1"
     style="fill:#ffffff;fill-opacity:1"
     id="rect6197" />
  <rect
     x="10"
     y="4.9999981"
     width="1"
     height="1"
     style="fill:#ffffff;fill-opacity:1"
     id="rect6199" />
  <rect
     x="12"
     y="4.9999981"
     width="1"
     height="1"
     style="fill:#ffffff;fill-opacity:1"
     id="rect6201" />
  <rect
     x="15"
     y="4.9999981"
     width="1"
     height="1"
     style="fill:#ffffff;fill-opacity:1"
     id="rect6203" />
  <rect
     x="18"
     y="4.9999981"
     width="1"
     height="1"
     style="fill:#ffffff;fill-opacity:1"
     id="rect6205" />
  <rect
     x="24"
     y="4.9999981"
     width="1"
     height="1"
     style="fill:#ffffff;fill-opacity:1"
     id="rect6207" />
  <rect
     x="4"
     y="5.9999981"
     width="1"
     height="1"
     style="fill:#ffffff;fill-opacity:1"
     id="rect6209" />
  <rect
     x="6"
     y="5.9999981"
     width="1"
     height="1"
     style="fill:#ffffff;fill-opacity:1"
     id="rect6211" />
  <rect
     x="7"
     y="5.9999981"
     width="1"
     height="1"
     style="fill:#ffffff;fill-opacity:1"
     id="rect6213" />
  <rect
     x="8"
     y="5.9999981"
     width="1"
     height="1"
     style="fill:#ffffff;fill-opacity:1"
     id="rect6215" />
  <rect
     x="10"
     y="5.9999981"
     width="1"
     height="1"
     style="fill:#ffffff;fill-opacity:1"
     id="rect6217" />
  <rect
     x="13"
     y="5.9999981"
     width="1"
     height="1"
     style="fill:#ffffff;fill-opacity:1"
     id="rect6219" />
  <rect
     x="18"
     y="5.9999981"
     width="1"
     height="1"
     style="fill:#ffffff;fill-opacity:1"
     id="rect6221" />
  <rect
     x="20"
     y="5.9999981"
     width="1"
     height="1"
     style="fill:#ffffff;fill-opacity:1"
     id="rect6223" />
  <rect
     x="21"
     y="5.9999981"
     width="1"
     height="1"
     style="fill:#ffffff;fill-opacity:1"
     id="rect6225" />
  <rect
     x="22"
     y="5.9999981"
     width="1"
     height="1"
     style="fill:#ffffff;fill-opacity:1"
     id="rect6227" />
  <rect
     x="24"
     y="5.9999981"
     width="1"
     height="1"
     style="fill:#ffffff;fill-opacity:1"
     id="rect6229" />
  <rect
     x="4"
     y="6.9999981"
     width="1"
     height="1"
     style="fill:#ffffff;fill-opacity:1"
     id="rect6231" />
  <rect
     x="6"
     y="6.9999981"
     width="1"
     height="1"
     style="fill:#ffffff;fill-opacity:1"
     id="rect6233" />
  <rect
     x="7"
     y="6.9999981"
     width="1"
     height="1"
     style="fill:#ffffff;fill-opacity:1"
     id="rect6235" />
  <rect
     x="8"
     y="6.9999981"
     width="1"
     height="1"
     style="fill:#ffffff;fill-opacity:1"
     id="rect6237" />
  <rect
     x="10"
     y="6.9999981"
     width="1"
     height="1"
     style="fill:#ffffff;fill-opacity:1"
     id="rect6239" />
  <rect
     x="12"
     y="6.9999981"
     width="1"
     height="1"
     style="fill:#ffffff;fill-opacity:1"
     id="rect6241" />
  <rect
     x="15"
     y="6.9999981"
     width="1"
     height="1"
     style="fill:#ffffff;fill-opacity:1"
     id="rect6243" />
  <rect
     x="18"
     y="6.9999981"
     width="1"
     height="1"
     style="fill:#ffffff;fill-opacity:1"
     id="rect6245" />
  <rect
     x="20"
     y="6.9999981"
     width="1"
     height="1"
     style="fill:#ffffff;fill-opacity:1"
     id="rect6247" />
  <rect
     x="21"
     y="6.9999981"
     width="1"
     height="1"
     style="fill:#ffffff;fill-opacity:1"
     id="rect6249" />
  <rect
     x="22"
     y="6.9999981"
     width="1"
     height="1"
     style="fill:#ffffff;fill-opacity:1"
     id="rect6251" />
  <rect
     x="24"
     y="6.9999981"
     width="1"
     height="1"
     style="fill:#ffffff;fill-opacity:1"
     id="rect6253" />
  <rect
     x="4"
     y="7.9999981"
     width="1"
     height="1"
     style="fill:#ffffff;fill-opacity:1"
     id="rect6255" />
  <rect
     x="6"
     y="7.9999981"
     width="1"
     height="1"
     style="fill:#ffffff;fill-opacity:1"
     id="rect6257" />
  <rect
     x="7"
     y="7.9999981"
     width="1"
     height="1"
     style="fill:#ffffff;fill-opacity:1"
     id="rect6259" />
  <rect
     x="8"
     y="7.9999981"
     width="1"
     height="1"
     style="fill:#ffffff;fill-opacity:1"
     id="rect6261" />
  <rect
     x="10"
     y="7.9999981"
     width="1"
     height="1"
     style="fill:#ffffff;fill-opacity:1"
     id="rect6263" />
  <rect
     x="14"
     y="7.9999981"
     width="1"
     height="1"
     style="fill:#ffffff;fill-opacity:1"
     id="rect6265" />
  <rect
     x="15"
     y="7.9999981"
     width="1"
     height="1"
     style="fill:#ffffff;fill-opacity:1"
     id="rect6267" />
  <rect
     x="16"
     y="7.9999981"
     width="1"
     height="1"
     style="fill:#ffffff;fill-opacity:1"
     id="rect6269" />
  <rect
     x="18"
     y="7.9999981"
     width="1"
     height="1"
     style="fill:#ffffff;fill-opacity:1"
     id="rect6271" />
  <rect
     x="20"
     y="7.9999981"
     width="1"
     height="1"
     style="fill:#ffffff;fill-opacity:1"
     id="rect6273" />
  <rect
     x="21"
     y="7.9999981"
     width="1"
     height="1"
     style="fill:#ffffff;fill-opacity:1"
     id="rect6275" />
  <rect
     x="22"
     y="7.9999981"
     width="1"
     height="1"
     style="fill:#ffffff;fill-opacity:1"
     id="rect6277" />
  <rect
     x="24"
     y="7.9999981"
     width="1"
     height="1"
     style="fill:#ffffff;fill-opacity:1"
     id="rect6279" />
  <rect
     x="4"
     y="8.9999981"
     width="1"
     height="1"
     style="fill:#ffffff;fill-opacity:1"
     id="rect6281" />
  <rect
     x="10"
     y="8.9999981"
     width="1"
     height="1"
     style="fill:#ffffff;fill-opacity:1"
     id="rect6283" />
  <rect
     x="12"
     y="8.9999981"
     width="1"
     height="1"
     style="fill:#ffffff;fill-opacity:1"
     id="rect6285" />
  <rect
     x="13"
     y="8.9999981"
     width="1"
     height="1"
     style="fill:#ffffff;fill-opacity:1"
     id="rect6287" />
  <rect
     x="14"
     y="8.9999981"
     width="1"
     height="1"
     style="fill:#ffffff;fill-opacity:1"
     id="rect6289" />
  <rect
     x="16"
     y="8.9999981"
     width="1"
     height="1"
     style="fill:#ffffff;fill-opacity:1"
     id="rect6291" />
  <rect
     x="18"
     y="8.9999981"
     width="1"
     height="1"
     style="fill:#ffffff;fill-opacity:1"
     id="rect6293" />
  <rect
     x="24"
     y="8.9999981"
     width="1"
     height="1"
     style="fill:#ffffff;fill-opacity:1"
     id="rect6295" />
  <rect
     x="4"
     y="9.9999981"
     width="1"
     height="1"
     style="fill:#ffffff;fill-opacity:1"
     id="rect6297" />
  <rect
     x="5"
     y="9.9999981"
     width="1"
     height="1"
     style="fill:#ffffff;fill-opacity:1"
     id="rect6299" />
  <rect
     x="6"
     y="9.9999981"
     width="1"
     height="1"
     style="fill:#ffffff;fill-opacity:1"
     id="rect6301" />
  <rect
     x="7"
     y="9.9999981"
     width="1"
     height="1"
     style="fill:#ffffff;fill-opacity:1"
     id="rect6303" />
  <rect
     x="8"
     y="9.9999981"
     width="1"
     height="1"
     style="fill:#ffffff;fill-opacity:1"
     id="rect6305" />
  <rect
     x="9"
     y="9.9999981"
     width="1"
     height="1"
     style="fill:#ffffff;fill-opacity:1"
     id="rect6307" />
  <rect
     x="10"
     y="9.9999981"
     width="1"
     height="1"
     style="fill:#ffffff;fill-opacity:1"
     id="rect6309" />
  <rect
     x="12"
     y="9.9999981"
     width="1"
     height="1"
     style="fill:#ffffff;fill-opacity:1"
     id="rect6311" />
  <rect
     x="14"
     y="9.9999981"
     width="1"
     height="1"
     style="fill:#ffffff;fill-opacity:1"
     id="rect6313" />
  <rect
     x="16"
     y="9.9999981"
     width="1"
     height="1"
     style="fill:#ffffff;fill-opacity:1"
     id="rect6315" />
  <rect
     x="18"
     y="9.9999981"
     width="1"
     height="1"
     style="fill:#ffffff;fill-opacity:1"
     id="rect6317" />
  <rect
     x="19"
     y="9.9999981"
     width="1"
     height="1"
     style="fill:#ffffff;fill-opacity:1"
     id="rect6319" />
  <rect
     x="20"
     y="9.9999981"
     width="1"
     height="1"
     style="fill:#ffffff;fill-opacity:1"
     id="rect6321" />
  <rect
     x="21"
     y="9.9999981"
     width="1"
     height="1"
     style="fill:#ffffff;fill-opacity:1"
     id="rect6323" />
  <rect
     x="22"
     y="9.9999981"
     width="1"
     height="1"
     style="fill:#ffffff;fill-opacity:1"
     id="rect6325" />
  <rect
     x="23"
     y="9.9999981"
     width="1"
     height="1"
     style="fill:#ffffff;fill-opacity:1"
     id="rect6327" />
  <rect
     x="24"
     y="9.9999981"
     width="1"
     height="1"
     style="fill:#ffffff;fill-opacity:1"
     id="rect6329" />
  <rect
     x="14"
     y="10.999998"
     width="1"
     height="1"
     style="fill:#ffffff;fill-opacity:1"
     id="rect6331" />
  <rect
     x="15"
     y="10.999998"
     width="1"
     height="1"
     style="fill:#ffffff;fill-opacity:1"
     id="rect6333" />
  <rect
     x="16"
     y="10.999998"
     width="1"
     height="1"
     style="fill:#ffffff;fill-opacity:1"
     id="rect6335" />
  <rect
     x="4"
     y="11.999998"
     width="1"
     height="1"
     style="fill:#ffffff;fill-opacity:1"
     id="rect6337" />
  <rect
     x="5"
     y="11.999998"
     width="1"
     height="1"
     style="fill:#ffffff;fill-opacity:1"
     id="rect6339" />
  <rect
     x="6"
     y="11.999998"
     width="1"
     height="1"
     style="fill:#ffffff;fill-opacity:1"
     id="rect6341" />
  <rect
     x="7"
     y="11.999998"
     width="1"
     height="1"
     style="fill:#ffffff;fill-opacity:1"
     id="rect6343" />
  <rect
     x="8"
     y="11.999998"
     width="1"
     height="1"
     style="fill:#ffffff;fill-opacity:1"
     id="rect6345" />
  <rect
     x="10"
     y="11.999998"
     width="1"
     height="1"
     style="fill:#ffffff;fill-opacity:1"
     id="rect6347" />
  <rect
     x="11"
     y="11.999998"
     width="1"
     height="1"
     style="fill:#ffffff;fill-opacity:1"
     id="rect6349" />
  <rect
     x="12"
     y="11.999998"
     width="1"
     height="1"
     style="fill:#ffffff;fill-opacity:1"
     id="rect6351" />
  <rect
     x="13"
     y="11.999998"
     width="1"
     height="1"
     style="fill:#ffffff;fill-opacity:1"
     id="rect6353" />
  <rect
     x="16"
     y="11.999998"
     width="1"
     height="1"
     style="fill:#ffffff;fill-opacity:1"
     id="rect6355" />
  <rect
     x="17"
     y="11.999998"
     width="1"
     height="1"
     style="fill:#ffffff;fill-opacity:1"
     id="rect6357" />
  <rect
     x="19"
     y="11.999998"
     width="1"
     height="1"
     style="fill:#ffffff;fill-opacity:1"
     id="rect6359" />
  <rect
     x="21"
     y="11.999998"
     width="1"
     height="1"
     style="fill:#ffffff;fill-opacity:1"
     id="rect6361" />
  <rect
     x="23"
     y="11.999998"
     width="1"
     height="1"
     style="fill:#ffffff;fill-opacity:1"
     id="rect6363" />
  <rect
     x="6"
     y="12.999998"
     width="1"
     height="1"
     style="fill:#ffffff;fill-opacity:1"
     id="rect6365" />
  <rect
     x="7"
     y="12.999998"
     width="1"
     height="1"
     style="fill:#ffffff;fill-opacity:1"
     id="rect6367" />
  <rect
     x="12"
     y="12.999998"
     width="1"
     height="1"
     style="fill:#ffffff;fill-opacity:1"
     id="rect6369" />
  <rect
     x="14"
     y="12.999998"
     width="1"
     height="1"
     style="fill:#ffffff;fill-opacity:1"
     id="rect6371" />
  <rect
     x="16"
     y="12.999998"
     width="1"
     height="1"
     style="fill:#ffffff;fill-opacity:1"
     id="rect6373" />
  <rect
     x="19"
     y="12.999998"
     width="1"
     height="1"
     style="fill:#ffffff;fill-opacity:1"
     id="rect6375" />
  <rect
     x="21"
     y="12.999998"
     width="1"
     height="1"
     style="fill:#ffffff;fill-opacity:1"
     id="rect6377" />
  <rect
     x="22"
     y="12.999998"
     width="1"
     height="1"
     style="fill:#ffffff;fill-opacity:1"
     id="rect6379" />
  <rect
     x="24"
     y="12.999998"
     width="1"
     height="1"
     style="fill:#ffffff;fill-opacity:1"
     id="rect6381" />
  <rect
     x="5"
     y="13.999998"
     width="1"
     height="1"
     style="fill:#ffffff;fill-opacity:1"
     id="rect6383" />
  <rect
     x="7"
     y="13.999998"
     width="1"
     height="1"
     style="fill:#ffffff;fill-opacity:1"
     id="rect6385" />
  <rect
     x="8"
     y="13.999998"
     width="1"
     height="1"
     style="fill:#ffffff;fill-opacity:1"
     id="rect6387" />
  <rect
     x="9"
     y="13.999998"
     width="1"
     height="1"
     style="fill:#ffffff;fill-opacity:1"
     id="rect6389" />
  <rect
     x="10"
     y="13.999998"
     width="1"
     height="1"
     style="fill:#ffffff;fill-opacity:1"
     id="rect6391" />
  <rect
     x="13"
     y="13.999998"
     width="1"
     height="1"
     style="fill:#ffffff;fill-opacity:1"
     id="rect6393" />
  <rect
     x="14"
     y="13.999998"
     width="1"
     height="1"
     style="fill:#ffffff;fill-opacity:1"
     id="rect6395" />
  <rect
     x="15"
     y="13.999998"
     width="1"
     height="1"
     style="fill:#ffffff;fill-opacity:1"
     id="rect6397" />
  <rect
     x="17"
     y="13.999998"
     width="1"
     height="1"
     style="fill:#ffffff;fill-opacity:1"
     id="rect6399" />
  <rect
     x="20"
     y="13.999998"
     width="1"
     height="1"
     style="fill:#ffffff;fill-opacity:1"
     id="rect6401" />
  <rect
     x="21"
     y="13.999998"
     width="1"
     height="1"
     style="fill:#ffffff;fill-opacity:1"
     id="rect6403" />
  <rect
     x="22"
     y="13.999998"
     width="1"
     height="1"
     style="fill:#ffffff;fill-opacity:1"
     id="rect6405" />
  <rect
     x="23"
     y="13.999998"
     width="1"
     height="1"
     style="fill:#ffffff;fill-opacity:1"
     id="rect6407" />
  <rect
     x="6"
     y="14.999998"
     width="1"
     height="1"
     style="fill:#ffffff;fill-opacity:1"
     id="rect6409" />
  <rect
     x="7"
     y="14.999998"
     width="1"
     height="1"
     style="fill:#ffffff;fill-opacity:1"
     id="rect6411" />
  <rect
     x="8"
     y="14.999998"
     width="1"
     height="1"
     style="fill:#ffffff;fill-opacity:1"
     id="rect6413" />
  <rect
     x="11"
     y="14.999998"
     width="1"
     height="1"
     style="fill:#ffffff;fill-opacity:1"
     id="rect6415" />
  <rect
     x="12"
     y="14.999998"
     width="1"
     height="1"
     style="fill:#ffffff;fill-opacity:1"
     id="rect6417" />
  <rect
     x="13"
     y="14.999998"
     width="1"
     height="1"
     style="fill:#ffffff;fill-opacity:1"
     id="rect6419" />
  <rect
     x="14"
     y="14.999998"
     width="1"
     height="1"
     style="fill:#ffffff;fill-opacity:1"
     id="rect6421" />
  <rect
     x="19"
     y="14.999998"
     width="1"
     height="1"
     style="fill:#ffffff;fill-opacity:1"
     id="rect6423" />
  <rect
     x="20"
     y="14.999998"
     width="1"
     height="1"
     style="fill:#ffffff;fill-opacity:1"
     id="rect6425" />
  <rect
     x="21"
     y="14.999998"
     width="1"
     height="1"
     style="fill:#ffffff;fill-opacity:1"
     id="rect6427" />
  <rect
     x="22"
     y="14.999998"
     width="1"
     height="1"
     style="fill:#ffffff;fill-opacity:1"
     id="rect6429" />
  <rect
     x="24"
     y="14.999998"
     width="1"
     height="1"
     style="fill:#ffffff;fill-opacity:1"
     id="rect6431" />
  <rect
     x="5"
     y="15.999998"
     width="1"
     height="1"
     style="fill:#ffffff;fill-opacity:1"
     id="rect6433" />
  <rect
     x="6"
     y="15.999998"
     width="1"
     height="1"
     style="fill:#ffffff;fill-opacity:1"
     id="rect6435" />
  <rect
     x="10"
     y="15.999998"
     width="1"
     height="1"
     style="fill:#ffffff;fill-opacity:1"
     id="rect6437" />
  <rect
     x="11"
     y="15.999998"
     width="1"
     height="1"
     style="fill:#ffffff;fill-opacity:1"
     id="rect6439" />
  <rect
     x="12"
     y="15.999998"
     width="1"
     height="1"
     style="fill:#ffffff;fill-opacity:1"
     id="rect6441" />
  <rect
     x="13"
     y="15.999998"
     width="1"
     height="1"
     style="fill:#ffffff;fill-opacity:1"
     id="rect6443" />
  <rect
     x="14"
     y="15.999998"
     width="1"
     height="1"
     style="fill:#ffffff;fill-opacity:1"
     id="rect6445" />
  <rect
     x="15"
     y="15.999998"
     width="1"
     height="1"
     style="fill:#ffffff;fill-opacity:1"
     id="rect6447" />
  <rect
     x="17"
     y="15.999998"
     width="1"
     height="1"
     style="fill:#ffffff;fill-opacity:1"
     id="rect6449" />
  <rect
     x="20"
     y="15.999998"
     width="1"
     height="1"
     style="fill:#ffffff;fill-opacity:1"
     id="rect6451" />
  <rect
     x="21"
     y="15.999998"
     width="1"
     height="1"
     style="fill:#ffffff;fill-opacity:1"
     id="rect6453" />
  <rect
     x="23"
     y="15.999998"
     width="1"
     height="1"
     style="fill:#ffffff;fill-opacity:1"
     id="rect6455" />
  <rect
     x="24"
     y="15.999998"
     width="1"
     height="1"
     style="fill:#ffffff;fill-opacity:1"
     id="rect6457" />
  <rect
     x="12"
     y="16.999998"
     width="1"
     height="1"
     style="fill:#ffffff;fill-opacity:1"
     id="rect6459" />
  <rect
     x="15"
     y="16.999998"
     width="1"
     height="1"
     style="fill:#ffffff;fill-opacity:1"
     id="rect6461" />
  <rect
     x="16"
     y="16.999998"
     width="1"
     height="1"
     style="fill:#ffffff;fill-opacity:1"
     id="rect6463" />
  <rect
     x="17"
     y="16.999998"
     width="1"
     height="1"
     style="fill:#ffffff;fill-opacity:1"
     id="rect6465" />
  <rect
     x="18"
     y="16.999998"
     width="1"
     height="1"
     style="fill:#ffffff;fill-opacity:1"
     id="rect6467" />
  <rect
     x="19"
     y="16.999998"
     width="1"
     height="1"
     style="fill:#ffffff;fill-opacity:1"
     id="rect6469" />
  <rect
     x="24"
     y="16.999998"
     width="1"
     height="1"
     style="fill:#ffffff;fill-opacity:1"
     id="rect6471" />
  <rect
     x="4"
     y="17.999998"
     width="1"
     height="1"
     style="fill:#ffffff;fill-opacity:1"
     id="rect6473" />
  <rect
     x="5"
     y="17.999998"
     width="1"
     height="1"
     style="fill:#ffffff;fill-opacity:1"
     id="rect6475" />
  <rect
     x="6"
     y="17.999998"
     width="1"
     height="1"
     style="fill:#ffffff;fill-opacity:1"
     id="rect6477" />
  <rect
     x="7"
     y="17.999998"
     width="1"
     height="1"
     style="fill:#ffffff;fill-opacity:1"
     id="rect6479" />
  <rect
     x="8"
     y="17.999998"
     width="1"
     height="1"
     style="fill:#ffffff;fill-opacity:1"
     id="rect6481" />
  <rect
     x="9"
     y="17.999998"
     width="1"
     height="1"
     style="fill:#ffffff;fill-opacity:1"
     id="rect6483" />
  <rect
     x="10"
     y="17.999998"
     width="1"
     height="1"
     style="fill:#ffffff;fill-opacity:1"
     id="rect6485" />
  <rect
     x="12"
     y="17.999998"
     width="1"
     height="1"
     style="fill:#ffffff;fill-opacity:1"
     id="rect6487" />
  <rect
     x="13"
     y="17.999998"
     width="1"
     height="1"
     style="fill:#ffffff;fill-opacity:1"
     id="rect6489" />
  <rect
     x="14"
     y="17.999998"
     width="1"
     height="1"
     style="fill:#ffffff;fill-opacity:1"
     id="rect6491" />
  <rect
     x="16"
     y="17.999998"
     width="1"
     height="1"
     style="fill:#ffffff;fill-opacity:1"
     id="rect6493" />
  <rect
     x="18"
     y="17.999998"
     width="1"
     height="1"
     style="fill:#ffffff;fill-opacity:1"
     id="rect6495" />
  <rect
     x="19"
     y="17.999998"
     width="1"
     height="1"
     style="fill:#ffffff;fill-opacity:1"
     id="rect6497" />
  <rect
     x="22"
     y="17.999998"
     width="1"
     height="1"
     style="fill:#ffffff;fill-opacity:1"
     id="rect6499" />
  <rect
     x="23"
     y="17.999998"
     width="1"
     height="1"
     style="fill:#ffffff;fill-opacity:1"
     id="rect6501" />
  <rect
     x="4"
     y="18.999998"
     width="1"
     height="1"
     style="fill:#ffffff;fill-opacity:1"
     id="rect6503" />
  <rect
     x="10"
     y="18.999998"
     width="1"
     height="1"
     style="fill:#ffffff;fill-opacity:1"
     id="rect6505" />
  <rect
     x="15"
     y="18.999998"
     width="1"
     height="1"
     style="fill:#ffffff;fill-opacity:1"
     id="rect6507" />
  <rect
     x="16"
     y="18.999998"
     width="1"
     height="1"
     style="fill:#ffffff;fill-opacity:1"
     id="rect6509" />
  <rect
     x="17"
     y="18.999998"
     width="1"
     height="1"
     style="fill:#ffffff;fill-opacity:1"
     id="rect6511" />
  <rect
     x="18"
     y="18.999998"
     width="1"
     height="1"
     style="fill:#ffffff;fill-opacity:1"
     id="rect6513" />
  <rect
     x="19"
     y="18.999998"
     width="1"
     height="1"
     style="fill:#ffffff;fill-opacity:1"
     id="rect6515" />
  <rect
     x="21"
     y="18.999998"
     width="1"
     height="1"
     style="fill:#ffffff;fill-opacity:1"
     id="rect6517" />
  <rect
     x="22"
     y="18.999998"
     width="1"
     height="1"
     style="fill:#ffffff;fill-opacity:1"
     id="rect6519" />
  <rect
     x="24"
     y="18.999998"
     width="1"
     height="1"
     style="fill:#ffffff;fill-opacity:1"
     id="rect6521" />
  <rect
     x="4"
     y="19.999998"
     width="1"
     height="1"
     style="fill:#ffffff;fill-opacity:1"
     id="rect6523" />
  <rect
     x="6"
     y="19.999998"
     width="1"
     height="1"
     style="fill:#ffffff;fill-opacity:1"
     id="rect6525" />
  <rect
     x="7"
     y="19.999998"
     width="1"
     height="1"
     style="fill:#ffffff;fill-opacity:1"
     id="rect6527" />
  <rect
     x="8"
     y="19.999998"
     width="1"
     height="1"
     style="fill:#ffffff;fill-opacity:1"
     id="rect6529" />
  <rect
     x="10"
     y="19.999998"
     width="1"
     height="1"
     style="fill:#ffffff;fill-opacity:1"
     id="rect6531" />
  <rect
     x="12"
     y="19.999998"
     width="1"
     height="1"
     style="fill:#ffffff;fill-opacity:1"
     id="rect6533" />
  <rect
     x="16"
     y="19.999998"
     width="1"
     height="1"
     style="fill:#ffffff;fill-opacity:1"
     id="rect6535" />
  <rect
     x="19"
     y="19.999998"
     width="1"
     height="1"
     style="fill:#ffffff;fill-opacity:1"
     id="rect6537" />
  <rect
     x="20"
     y="19.999998"
     width="1"
     height="1"
     style="fill:#ffffff;fill-opacity:1"
     id="rect6539" />
  <rect
     x="21"
     y="19.999998"
     width="1"
     height="1"
     style="fill:#ffffff;fill-opacity:1"
     id="rect6541" />
  <rect
     x="23"
     y="19.999998"
     width="1"
     height="1"
     style="fill:#ffffff;fill-opacity:1"
     id="rect6543" />
  <rect
     x="4"
     y="20.999998"
     width="1"
     height="1"
     style="fill:#ffffff;fill-opacity:1"
     id="rect6545" />
  <rect
     x="6"
     y="20.999998"
     width="1"
     height="1"
     style="fill:#ffffff;fill-opacity:1"
     id="rect6547" />
  <rect
     x="7"
     y="20.999998"
     width="1"
     height="1"
     style="fill:#ffffff;fill-opacity:1"
     id="rect6549" />
  <rect
     x="8"
     y="20.999998"
     width="1"
     height="1"
     style="fill:#ffffff;fill-opacity:1"
     id="rect6551" />
  <rect
     x="10"
     y="20.999998"
     width="1"
     height="1"
     style="fill:#ffffff;fill-opacity:1"
     id="rect6553" />
  <rect
     x="12"
     y="20.999998"
     width="1"
     height="1"
     style="fill:#ffffff;fill-opacity:1"
     id="rect6555" />
  <rect
     x="13"
     y="20.999998"
     width="1"
     height="1"
     style="fill:#ffffff;fill-opacity:1"
     id="rect6557" />
  <rect
     x="14"
     y="20.999998"
     width="1"
     height="1"
     style="fill:#ffffff;fill-opacity:1"
     id="rect6559" />
  <rect
     x="16"
     y="20.999998"
     width="1"
     height="1"
     style="fill:#ffffff;fill-opacity:1"
     id="rect6561" />
  <rect
     x="20"
     y="20.999998"
     width="1"
     height="1"
     style="fill:#ffffff;fill-opacity:1"
     id="rect6563" />
  <rect
     x="21"
     y="20.999998"
     width="1"
     height="1"
     style="fill:#ffffff;fill-opacity:1"
     id="rect6565" />
  <rect
     x="22"
     y="20.999998"
     width="1"
     height="1"
     style="fill:#ffffff;fill-opacity:1"
     id="rect6567" />
  <rect
     x="4"
     y="21.999998"
     width="1"
     height="1"
     style="fill:#ffffff;fill-opacity:1"
     id="rect6569" />
  <rect
     x="6"
     y="21.999998"
     width="1"
     height="1"
     style="fill:#ffffff;fill-opacity:1"
     id="rect6571" />
  <rect
     x="7"
     y="21.999998"
     width="1"
     height="1"
     style="fill:#ffffff;fill-opacity:1"
     id="rect6573" />
  <rect
     x="8"
     y="21.999998"
     width="1"
     height="1"
     style="fill:#ffffff;fill-opacity:1"
     id="rect6575" />
  <rect
     x="10"
     y="21.999998"
     width="1"
     height="1"
     style="fill:#ffffff;fill-opacity:1"
     id="rect6577" />
  <rect
     x="12"
     y="21.999998"
     width="1"
     height="1"
     style="fill:#ffffff;fill-opacity:1"
     id="rect6579" />
  <rect
     x="14"
     y="21.999998"
     width="1"
     height="1"
     style="fill:#ffffff;fill-opacity:1"
     id="rect6581" />
  <rect
     x="15"
     y="21.999998"
     width="1"
     height="1"
     style="fill:#ffffff;fill-opacity:1"
     id="rect6583" />
  <rect
     x="17"
     y="21.999998"
     width="1"
     height="1"
     style="fill:#ffffff;fill-opacity:1"
     id="rect6585" />
  <rect
     x="22"
     y="21.999998"
     width="1"
     height="1"
     style="fill:#ffffff;fill-opacity:1"
     id="rect6587" />
  <rect
     x="4"
     y="22.999998"
     width="1"
     height="1"
     style="fill:#ffffff;fill-opacity:1"
     id="rect6589" />
  <rect
     x="10"
     y="22.999998"
     width="1"
     height="1"
     style="fill:#ffffff;fill-opacity:1"
     id="rect6591" />
  <rect
     x="12"
     y="22.999998"
     width="1"
     height="1"
     style="fill:#ffffff;fill-opacity:1"
     id="rect6593" />
  <rect
     x="14"
     y="22.999998"
     width="1"
     height="1"
     style="fill:#ffffff;fill-opacity:1"
     id="rect6595" />
  <rect
     x="21"
     y="22.999998"
     width="1"
     height="1"
     style="fill:#ffffff;fill-opacity:1"
     id="rect6597" />
  <rect
     x="22"
     y="22.999998"
     width="1"
     height="1"
     style="fill:#ffffff;fill-opacity:1"
     id="rect6599" />
  <rect
     x="4"
     y="23.999998"
     width="1"
     height="1"
     style="fill:#ffffff;fill-opacity:1"
     id="rect6601" />
  <rect
     x="5"
     y="23.999998"
     width="1"
     height="1"
     style="fill:#ffffff;fill-opacity:1"
     id="rect6603" />
  <rect
     x="6"
     y="23.999998"
     width="1"
     height="1"
     style="fill:#ffffff;fill-opacity:1"
     id="rect6605" />
  <rect
     x="7"
     y="23.999998"
     width="1"
     height="1"
     style="fill:#ffffff;fill-opacity:1"
     id="rect6607" />
  <rect
     x="8"
     y="23.999998"
     width="1"
     height="1"
     style="fill:#ffffff;fill-opacity:1"
     id="rect6609" />
  <rect
     x="9"
     y="23.999998"
     width="1"
     height="1"
     style="fill:#ffffff;fill-opacity:1"
     id="rect6611" />
  <rect
     x="10"
     y="23.999998"
     width="1"
     height="1"
     style="fill:#ffffff;fill-opacity:1"
     id="rect6613" />
  <rect
     x="12"
     y="23.999998"
     width="1"
     height="1"
     style="fill:#ffffff;fill-opacity:1"
     id="rect6615" />
  <rect
     x="14"
     y="23.999998"
     width="1"
     height="1"
     style="fill:#ffffff;fill-opacity:1"
     id="rect6617" />
  <rect
     x="15"
     y="23.999998"
     width="1"
     height="1"
     style="fill:#ffffff;fill-opacity:1"
     id="rect6619" />
  <rect
     x="17"
     y="23.999998"
     width="1"
     height="1"
     style="fill:#ffffff;fill-opacity:1"
     id="rect6621" />
  <rect
     x="19"
     y="23.999998"
     width="1"
     height="1"
     style="fill:#ffffff;fill-opacity:1"
     id="rect6623" />
  <rect
     x="20"
     y="23.999998"
     width="1"
     height="1"
     style="fill:#ffffff;fill-opacity:1"
     id="rect6625" />
  <rect
     x="23"
     y="23.999998"
     width="1"
     height="1"
     style="fill:#ffffff;fill-opacity:1"
     id="rect6627" />
</svg>
